<svg width="153" height="16" viewBox="0 0 153 16" fill="none" xmlns="http://www.w3.org/2000/svg">
<path d="M1.183 2.77H8.307V12H7.397V3.576H2.08V12H1.183V2.77ZM13.9167 12.13C13.3447 12.13 12.8377 11.987 12.3957 11.701C11.9624 11.4063 11.6114 11.038 11.3427 10.596V14.769H10.4587V5.227H11.2517V6.54C11.529 6.11533 11.8887 5.773 12.3307 5.513C12.7727 5.24433 13.2537 5.11 13.7737 5.11C14.2417 5.11 14.6707 5.20967 15.0607 5.409C15.4507 5.59967 15.7887 5.85967 16.0747 6.189C16.3607 6.50967 16.5817 6.88233 16.7377 7.307C16.9024 7.73167 16.9847 8.16933 16.9847 8.62C16.9847 9.09667 16.911 9.54733 16.7637 9.972C16.6164 10.3967 16.404 10.7693 16.1267 11.09C15.858 11.4107 15.533 11.6663 15.1517 11.857C14.779 12.039 14.3674 12.13 13.9167 12.13ZM13.6697 11.35C14.0337 11.35 14.363 11.272 14.6577 11.116C14.961 10.96 15.2167 10.7563 15.4247 10.505C15.6414 10.245 15.806 9.95467 15.9187 9.634C16.0314 9.30467 16.0877 8.96667 16.0877 8.62C16.0877 8.256 16.0227 7.90933 15.8927 7.58C15.7627 7.25067 15.585 6.96033 15.3597 6.709C15.1344 6.45767 14.8657 6.25833 14.5537 6.111C14.2504 5.96367 13.921 5.89 13.5657 5.89C13.3404 5.89 13.102 5.93767 12.8507 6.033C12.608 6.11967 12.3784 6.241 12.1617 6.397C11.9537 6.54433 11.7717 6.722 11.6157 6.93C11.4684 7.12933 11.3774 7.34167 11.3427 7.567V9.647C11.4467 9.88967 11.5767 10.115 11.7327 10.323C11.8974 10.531 12.0794 10.713 12.2787 10.869C12.4867 11.0163 12.7077 11.1333 12.9417 11.22C13.1757 11.3067 13.4184 11.35 13.6697 11.35ZM21.4195 12.13C20.9255 12.13 20.4705 12.039 20.0545 11.857C19.6472 11.6663 19.2919 11.4107 18.9885 11.09C18.6852 10.7607 18.4469 10.3837 18.2735 9.959C18.1089 9.53433 18.0265 9.07933 18.0265 8.594C18.0265 8.11733 18.1089 7.671 18.2735 7.255C18.4469 6.83033 18.6809 6.462 18.9755 6.15C19.2789 5.82933 19.6385 5.578 20.0545 5.396C20.4705 5.20533 20.9212 5.11 21.4065 5.11C21.9005 5.11 22.3512 5.20533 22.7585 5.396C23.1745 5.578 23.5299 5.82933 23.8245 6.15C24.1192 6.47067 24.3489 6.839 24.5135 7.255C24.6782 7.671 24.7605 8.113 24.7605 8.581C24.7605 8.65033 24.7605 8.71967 24.7605 8.789C24.7605 8.85833 24.7562 8.906 24.7475 8.932H18.9495C18.9755 9.296 19.0579 9.634 19.1965 9.946C19.3439 10.2493 19.5302 10.5137 19.7555 10.739C19.9809 10.9643 20.2365 11.142 20.5225 11.272C20.8172 11.3933 21.1292 11.454 21.4585 11.454C21.6752 11.454 21.8919 11.4237 22.1085 11.363C22.3252 11.3023 22.5245 11.22 22.7065 11.116C22.8885 11.012 23.0532 10.8863 23.2005 10.739C23.3479 10.583 23.4605 10.414 23.5385 10.232L24.3055 10.44C24.2015 10.6913 24.0542 10.921 23.8635 11.129C23.6729 11.3283 23.4519 11.506 23.2005 11.662C22.9492 11.8093 22.6719 11.922 22.3685 12C22.0652 12.0867 21.7489 12.13 21.4195 12.13ZM23.9155 8.256C23.8895 7.892 23.8029 7.56267 23.6555 7.268C23.5169 6.96467 23.3349 6.70467 23.1095 6.488C22.8929 6.27133 22.6372 6.10233 22.3425 5.981C22.0565 5.85967 21.7489 5.799 21.4195 5.799C21.0902 5.799 20.7782 5.85967 20.4835 5.981C20.1889 6.10233 19.9289 6.27133 19.7035 6.488C19.4869 6.70467 19.3092 6.96467 19.1705 7.268C19.0405 7.57133 18.9625 7.90067 18.9365 8.256H23.9155ZM25.1803 11.233H25.5703C25.761 11.1897 25.9256 11.0943 26.0643 10.947C26.2116 10.791 26.3416 10.557 26.4543 10.245C26.567 9.92433 26.6666 9.50833 26.7533 8.997C26.84 8.477 26.931 7.83133 27.0263 7.06L27.2343 5.227H31.1993V11.233H32.0313V14.093H31.2513V12H25.9213V14.093H25.1803V11.233ZM30.3413 11.233V5.929H28.0533L27.8583 7.437C27.711 8.51167 27.5506 9.35233 27.3773 9.959C27.2126 10.5657 27.0133 10.9903 26.7793 11.233H30.3413ZM33.4372 5.227H34.3082V7.632H35.7772C36.0892 7.632 36.3839 7.67967 36.6612 7.775C36.9386 7.87033 37.1812 8.009 37.3892 8.191C37.5972 8.373 37.7619 8.60267 37.8832 8.88C38.0046 9.14867 38.0652 9.46067 38.0652 9.816C38.0652 10.1713 38.0046 10.4877 37.8832 10.765C37.7619 11.0337 37.5972 11.259 37.3892 11.441C37.1812 11.623 36.9386 11.7617 36.6612 11.857C36.3839 11.9523 36.0892 12 35.7772 12H33.4372V5.227ZM38.9102 5.227H39.7682V12H38.9102V5.227ZM35.7772 11.246C36.2279 11.246 36.5746 11.1203 36.8172 10.869C37.0686 10.609 37.1942 10.258 37.1942 9.816C37.1942 9.374 37.0686 9.02733 36.8172 8.776C36.5659 8.516 36.2192 8.386 35.7772 8.386H34.3082V11.246H35.7772ZM40.986 11.233H41.376C41.5666 11.1897 41.7313 11.0943 41.87 10.947C42.0173 10.791 42.1473 10.557 42.26 10.245C42.3726 9.92433 42.4723 9.50833 42.559 8.997C42.6456 8.477 42.7366 7.83133 42.832 7.06L43.04 5.227H47.005V11.233H47.837V14.093H47.057V12H41.727V14.093H40.986V11.233ZM46.147 11.233V5.929H43.859L43.664 7.437C43.5166 8.51167 43.3563 9.35233 43.183 9.959C43.0183 10.5657 42.819 10.9903 42.585 11.233H46.147ZM49.1029 13.794C49.2329 13.9153 49.3629 13.9977 49.4929 14.041C49.6229 14.0843 49.7616 14.106 49.9089 14.106C50.0216 14.106 50.1299 14.0713 50.2339 14.002C50.3466 13.9413 50.4549 13.8287 50.5589 13.664C50.6716 13.508 50.7843 13.2957 50.8969 13.027C51.0096 12.7583 51.1353 12.416 51.2739 12L48.3229 5.227H49.2329L51.7419 11.181L54.0689 5.227H54.9139L51.7549 13.118C51.6249 13.456 51.4906 13.7377 51.3519 13.963C51.2219 14.1883 51.0833 14.3703 50.9359 14.509C50.7973 14.6477 50.6456 14.743 50.4809 14.795C50.3249 14.8557 50.1516 14.886 49.9609 14.886C49.5709 14.886 49.2719 14.782 49.0639 14.574L49.1029 13.794ZM56.1618 5.227H57.0328V11.233H59.5808V5.227H60.4518V11.233H62.9998V5.227H63.8708V11.233H65.0018V14.093H64.2348V12H56.1618V5.227ZM67.9065 12.13C67.5858 12.13 67.2868 12.078 67.0095 11.974C66.7408 11.8613 66.5025 11.7097 66.2945 11.519C66.0952 11.3283 65.9392 11.1073 65.8265 10.856C65.7138 10.596 65.6575 10.3187 65.6575 10.024C65.6575 9.72933 65.7268 9.45633 65.8655 9.205C66.0042 8.95367 66.1992 8.737 66.4505 8.555C66.7018 8.373 67.0008 8.23433 67.3475 8.139C67.6942 8.035 68.0755 7.983 68.4915 7.983C68.8382 7.983 69.1892 8.01333 69.5445 8.074C69.8998 8.13467 70.2162 8.22133 70.4935 8.334V7.723C70.4935 7.125 70.3245 6.65267 69.9865 6.306C69.6485 5.95067 69.1805 5.773 68.5825 5.773C68.2358 5.773 67.8805 5.84233 67.5165 5.981C67.1525 6.11967 66.7842 6.319 66.4115 6.579L66.0995 5.994C66.9748 5.40467 67.8242 5.11 68.6475 5.11C69.4968 5.11 70.1642 5.34833 70.6495 5.825C71.1348 6.30167 71.3775 6.96033 71.3775 7.801V10.856C71.3775 11.0987 71.4858 11.22 71.7025 11.22V12C71.5552 12.026 71.4425 12.039 71.3645 12.039C71.1392 12.039 70.9615 11.9827 70.8315 11.87C70.7102 11.7573 70.6452 11.6013 70.6365 11.402L70.6105 10.869C70.2985 11.2763 69.9042 11.5883 69.4275 11.805C68.9595 12.0217 68.4525 12.13 67.9065 12.13ZM68.1145 11.454C68.5738 11.454 68.9942 11.3673 69.3755 11.194C69.7655 11.0207 70.0602 10.791 70.2595 10.505C70.3375 10.427 70.3938 10.3447 70.4285 10.258C70.4718 10.1627 70.4935 10.076 70.4935 9.998V8.893C70.1988 8.78033 69.8912 8.69367 69.5705 8.633C69.2585 8.57233 68.9378 8.542 68.6085 8.542C67.9845 8.542 67.4775 8.672 67.0875 8.932C66.6975 9.192 66.5025 9.53433 66.5025 9.959C66.5025 10.167 66.5415 10.362 66.6195 10.544C66.7062 10.726 66.8188 10.8863 66.9575 11.025C67.1048 11.155 67.2782 11.259 67.4775 11.337C67.6768 11.415 67.8892 11.454 68.1145 11.454ZM74.5482 9.309C74.1322 9.18767 73.7899 8.96667 73.5212 8.646C73.2525 8.31667 73.1182 7.879 73.1182 7.333C73.1182 7.02967 73.1745 6.748 73.2872 6.488C73.3999 6.228 73.5515 6.007 73.7422 5.825C73.9415 5.63433 74.1755 5.487 74.4442 5.383C74.7215 5.279 75.0249 5.227 75.3542 5.227H77.7722V12H76.9012V9.426H75.4322L73.7162 12H72.7152L74.5482 9.309ZM76.9012 8.659V5.994H75.3932C75.2112 5.994 75.0335 6.02433 74.8602 6.085C74.6955 6.14567 74.5482 6.23667 74.4182 6.358C74.2882 6.47067 74.1842 6.60933 74.1062 6.774C74.0282 6.93867 73.9892 7.125 73.9892 7.333C73.9892 7.73167 74.1062 8.05233 74.3402 8.295C74.5829 8.53767 74.8992 8.659 75.2892 8.659H76.9012Z" fill="white"/>
<path d="M89 9L153 8.99999" stroke="white"/>
</svg>
